<svg width="2618" height="1849" viewBox="0 0 2618 1849" fill="none" xmlns="http://www.w3.org/2000/svg">
<path d="M2409.77 210.73L2411.77 118.76C1760.39 160.7 1106.87 223.58 453.77 244.72C458.99 275.3 449.14 306.39 453.97 337.5C446.79 359.44 1072.51 295.69 1075.76 302.67C1094.78 556.28 1034.25 801.83 992.02 1049.54C958.48 1206.42 1014.75 1359.78 1133.75 1465.02L969.77 1489.02C969.77 1489.02 735.26 1511.9 606.05 1593.84C527.42 1643.71 327.88 1849 327.88 1849H373.89C373.89 1849 448.37 1771.28 606.05 1650.8C763.73 1530.31 996.93 1525.69 996.93 1525.69C1092.09 1510.25 1190.25 1503.42 1286.68 1501.94C1321.14 1500.99 1363.99 1505.95 1396.87 1502.14C1410.3 1500.59 1409.05 1510.41 1409.5 1513.28C1415.53 1550.88 1440.31 1617.54 1451.3 1654.78C1453.12 1660.93 922.45 1849 922.45 1849H1025.36C1025.36 1849 1819.86 1614.49 1821.76 1451.02C1820.46 1436.49 2162.92 1659.84 2165.73 1656.98C2165.73 1656.99 2191.58 1668.12 2191.58 1668.12C2194.46 1686.66 2095.52 1797.65 2085.77 1814.87C2106.22 1818.1 2126.87 1812.05 2147.35 1811.43C2314.12 1590.46 2515.03 1263.46 2342.11 994.96C2305.57 940.63 2204.02 799.2 2161.08 627.74C2124.03 479.8 2142.39 301.53 2144.04 231.99L2409.77 210.73ZM1699.68 1542.7C1633.45 1584.22 1479.32 1650.97 1484.85 1642.51C1484.85 1642.51 1463.59 1599.15 1456.36 1564.82C1449.14 1530.49 1440.35 1488.66 1440.35 1488.66C1440.35 1488.66 1530.74 1441.65 1553.31 1385.41C1575.89 1329.17 1610.41 1265.18 1610.41 1265.18C1610.41 1265.18 1743.36 1395.42 1788.67 1431.73C1797.86 1439.09 1762.29 1503.44 1699.68 1542.69V1542.7ZM2340.29 1365.63C2311.97 1462.02 2261.93 1544.94 2213.72 1631.94C2016.62 1516.69 1795.06 1412.34 1641.76 1239.23C1804.22 1121.04 2110.58 1014.37 2311.74 1031.3C2372.5 1137.26 2376.64 1250.88 2340.29 1365.63ZM2285.79 993.33C2045.93 1006.49 1785.57 1077.41 1592.71 1224.11C1536.17 1274.58 1540.17 1315.06 1512.73 1376.06C1455.44 1495.98 1305.58 1454.54 1197.17 1464.08C1014.91 1291.5 1009.38 1063.78 1076.8 836.4C1117.78 674.35 1132.19 495.96 1118 329.9C1118.75 322.24 1122.32 300.31 1130.81 298.72L2084.87 233.39C2084.24 238.41 2078 490.38 2105.56 609.41C2129.49 712.71 2178.48 817.66 2285.79 993.33Z" fill="#00A468"/>
<path d="M1652.21 683.02C1639.48 631.05 1574.34 649.04 1549.52 654.4C1511.16 662.69 1507.58 676.29 1474.3 677.89C1424.56 680.29 1406.41 651.19 1370.08 662.5C1348.98 669.07 1331.94 686.1 1324.17 703.51C1298.61 760.79 1359.52 853.28 1414.74 857.35C1456.41 860.42 1477.74 820.79 1519.52 833.71C1539.16 839.78 1528.13 855.2 1546.27 862.89C1606.03 888.25 1731.36 788.77 1720.07 750.42C1712.45 724.52 1648.96 748.06 1643.29 718.46C1640.66 704.72 1655.31 695.62 1652.22 683.01L1652.21 683.02Z" fill="#FEBE50"/>
<path d="M1569.13 685.27L1647.15 788.18L1637.71 788.859L1566.23 690.99L1491.49 693.919L1487.95 688.24L1569.13 685.27Z" fill="#FC6106"/>
<path d="M1486.47 689.039L1557.16 796.129L1552.47 816.329L1481.78 709.519L1486.47 689.039Z" fill="#5F8FFB"/>
<path d="M1557.16 796.13L1552.47 816.33L1646.24 810.69L1648.05 790.82L1557.16 796.13Z" fill="#FC6106"/>
<path d="M1209.81 378.381L1212.32 381.341L1240.04 328.881H1246.97L1280.95 429.511L1944.11 413.131L1837.29 307.221L1243.87 315.441L1209.81 378.381Z" fill="#FF5F01"/>
<path d="M1280.95 429.511L1277.16 433.701L1273.71 642.861L1944.11 621.181V418.451V413.131L1280.95 429.511Z" fill="#FEBE50"/>
<path d="M1209.81 579.011L1212.32 381.341L1240.04 328.881H1246.97L1280.95 429.511L1277.16 433.701L1273.71 642.861L1209.81 579.011Z" fill="#5E90FF"/>
<path d="M1354.17 456.789C1365.62 456.789 1374.92 466.089 1374.92 477.539V523.979H1333.42V477.539C1333.42 466.089 1342.72 456.789 1354.17 456.789Z" fill="#681E11"/>
<path d="M1458.37 456.789C1469.82 456.789 1479.12 466.089 1479.12 477.539V523.979H1437.62V477.539C1437.62 466.089 1446.92 456.789 1458.37 456.789Z" fill="#681E11"/>
<path d="M1571.42 452.27C1582.87 452.27 1592.17 461.57 1592.17 473.02V519.46H1550.67V473.02C1550.67 461.57 1559.97 452.27 1571.42 452.27Z" fill="#681E11"/>
<path d="M1659.87 452.27C1671.32 452.27 1680.62 461.57 1680.62 473.02V519.46H1639.12V473.02C1639.12 461.57 1648.42 452.27 1659.87 452.27Z" fill="#681E11"/>
<path d="M1353.24 546.73C1364.69 546.73 1373.99 556.03 1373.99 567.48V613.92H1332.49V567.48C1332.49 556.03 1341.79 546.73 1353.24 546.73Z" fill="#681E11"/>
<path d="M1457.44 546.73C1468.89 546.73 1478.19 556.03 1478.19 567.48V613.92H1436.69V567.48C1436.69 556.03 1445.99 546.73 1457.44 546.73Z" fill="#681E11"/>
<path d="M1591.24 548.84H1549.74V633.93L1591.24 632.69V548.84Z" fill="#681E11"/>
<path d="M1658.94 542.221C1670.39 542.221 1679.69 551.521 1679.69 562.971V609.411H1638.19V562.971C1638.19 551.521 1647.49 542.221 1658.94 542.221Z" fill="#681E11"/>
<path d="M1715.9 469.06L1918.46 671.62L2139.12 666.19L1826.22 462.73L1715.9 469.06Z" fill="#FF5F01"/>
<path d="M1918.46 671.619C1918.46 671.619 1918.51 676.449 1915.78 676.449C1913.05 676.449 1916.09 817.649 1916.09 817.649H1910.21L1864.61 772.939L1781.95 774.409L1761.65 753.519L1763.96 670.649L1735.73 649.229L1731.35 721.269L1703.12 692.059C1703.12 692.059 1708.96 476.409 1708.96 471.549C1708.96 466.689 1715.91 469.049 1715.91 469.049" fill="#5E90FF"/>
<path d="M1731.35 721.281L1761.65 753.531L1763.96 670.651L1735.73 649.23L1731.35 721.281Z" fill="#681E11"/>
<path d="M1284.5 723.88H1329.81L1404.39 932.99L1628.67 920.02L1631.37 825.93L1916.1 816.22C1916.1 816.22 1912.49 674.78 1915.92 675.01C1918.33 675.17 1918.47 670.19 1918.47 670.19L2139.12 664.76L2216.16 723.82V959.68L1638.19 1024.63V1063.94L1445.33 1079.32V1163.07L1165.03 1204.09V1067.36L1284.5 723.88Z" fill="#BC7CD2"/>
<path d="M1193.3 624.289L1284.49 725.319L1165.02 1068.8V1205.53L1079.24 1024.6L1084.62 924.499L1193.3 624.289Z" fill="#5E90FF"/>
<path d="M1136.62 1037.25L1153.54 1064.44L1150.61 1149.62L1133.98 1118.54L1136.62 1037.25Z" fill="white"/>
<path d="M1105.57 977.32L1122.48 1004.51L1119.56 1089.69L1102.93 1058.6L1105.57 977.32Z" fill="white"/>
<path d="M1193.3 624.289L1236.44 621.02L1329.81 725.32H1284.5L1193.3 624.289Z" fill="#FF5F01"/>
<path d="M1388.71 890.48L1582.95 880.07L1628.66 921.45L1404.39 934.42L1388.71 890.48Z" fill="#FF5F01"/>
<path d="M1631.37 827.359L1584.93 776.279L1864.61 772.939L1910.21 817.659L1631.37 827.359Z" fill="#FF5F01"/>
<path d="M1582.95 880.069L1628.66 921.449L1631.37 827.359L1584.93 776.279L1582.95 880.069Z" fill="#5E90FF"/>
<path d="M1410.57 948.53L1468.3 945.49L1470.13 1059.17H1445.5V1044.32L1410.57 948.53Z" fill="#681E11"/>
<path d="M1478.2 945.49L1542.8 941.26L1545.36 1053.53L1480.25 1059.17L1478.2 945.49Z" fill="#681E11"/>
<path d="M1553.56 938.65L1618.15 934.42L1620.72 1046.69L1555.61 1052.33L1553.56 938.65Z" fill="#681E11"/>
<path d="M1689.92 917.17L1757.59 912.82V1011.21L1689.92 1018.82V917.17Z" fill="#681E11"/>
<path d="M1879.6 885.381H1825.77V961.251H1879.6V885.381Z" fill="#681E11"/>
<path d="M1196.49 1381.44L1182.72 1398.66L1231.61 1420.69H1272.23L1308.04 1364.23L1295.64 1352.52L1270.86 1378L1269.48 1329.8H1248.13L1251.58 1390.39L1233.67 1360.1L1211.47 1361.47L1229.54 1396.59L1196.49 1381.44Z" fill="#00A468"/>
<path d="M2456.5 1366.52L2442.73 1383.73L2491.62 1405.77H2532.24L2568.05 1349.3L2555.65 1337.6L2530.87 1363.08L2529.49 1314.88H2508.14L2511.59 1375.47L2493.68 1345.17L2471.48 1346.55L2489.55 1381.67L2456.5 1366.52Z" fill="#00A468"/>
<path d="M1865.95 1319.46L1877.27 1332.18L1837.09 1348.46H1803.7L1774.27 1306.74L1784.46 1298.09L1804.83 1316.91L1805.97 1281.3H1823.51L1820.68 1326.07L1835.39 1303.68L1853.64 1304.7L1838.79 1330.65L1865.95 1319.46Z" fill="#00A468"/>
<path d="M1958.64 1645.25L1969.96 1657.97L1929.78 1674.25H1896.39L1866.97 1632.53L1877.15 1623.88L1897.53 1642.71L1898.66 1607.09H1916.2L1913.37 1651.86L1928.08 1629.48L1946.33 1630.5L1931.48 1656.44L1958.64 1645.25Z" fill="#00A468"/>
<path d="M962.63 1678.83L973.95 1691.55L933.77 1707.83H900.38L870.95 1666.11L881.14 1657.46L901.51 1676.29L902.64 1640.67H920.19L917.36 1685.44L932.07 1663.06L950.32 1664.08L935.47 1690.02L962.63 1678.83Z" fill="#00A468"/>
<path d="M698.99 434.089L710.31 446.809L670.13 463.089H636.74L607.31 421.369L617.5 412.729L637.87 431.549L639 395.939H656.55L653.72 440.709L668.43 418.319L686.68 419.339L671.83 445.289L698.99 434.089Z" fill="#00A468"/>
<path d="M598.62 733.07L606.05 741.419L579.67 752.109H557.75L538.43 724.719L545.11 719.039L558.49 731.4L559.23 708.02H570.75L568.89 737.409L578.55 722.719L590.54 723.38L580.78 740.419L598.62 733.07Z" fill="#00A468"/>
<path d="M859.76 1272.47L867.19 1280.82L840.81 1291.51H818.89L799.57 1264.12L806.25 1258.44L819.63 1270.8L820.37 1247.42H831.89L830.03 1276.81L839.69 1262.11L851.68 1262.78L841.92 1279.82L859.76 1272.47Z" fill="#00A468"/>
<path d="M445.17 1284.3L452.6 1292.66L426.22 1303.35H404.3L384.97 1275.95L391.66 1270.28L405.04 1282.63L405.78 1259.25H417.3L415.44 1288.65L425.1 1273.95L437.08 1274.62L427.33 1291.65L445.17 1284.3Z" fill="#00A468"/>
<path d="M1428.89 109.82L1440.21 122.54L1400.03 138.82H1366.64L1337.22 97.1002L1347.4 88.4501L1367.78 107.27L1368.91 71.6602H1386.45L1383.62 116.43L1398.34 94.0402L1416.59 95.0602L1401.73 121.01L1428.89 109.82Z" fill="#00A468"/>
<path d="M2377.04 355.319L2371.14 362.699L2392.09 372.139H2409.5L2424.84 347.949L2419.53 342.929L2408.91 353.849L2408.32 333.189H2399.17L2400.65 359.159L2392.97 346.169L2383.46 346.769L2391.2 361.809L2377.04 355.319Z" fill="#00A468"/>
<path d="M1846.95 82.3099L1833.18 99.5299L1882.07 121.56H1922.69L1958.5 65.0999L1946.1 53.3899L1921.32 78.8699L1919.94 30.6699H1898.59L1902.04 91.2599L1884.13 60.9699L1861.93 62.3399L1880 97.4599L1846.95 82.3099Z" fill="#00A468"/>
<path d="M59.24 154.651L50.42 165.681L81.75 179.801H107.78L130.72 143.621L122.78 136.121L106.9 152.451L106.01 121.561H92.34L94.54 160.391L83.07 140.971L68.84 141.861L80.42 164.361L59.24 154.651Z" fill="#00A468"/>
<path d="M908.68 127.759L922.45 144.969L873.56 166.999H832.94L797.13 110.539L809.53 98.8391L834.32 124.309L835.69 76.1191H857.04L853.6 136.709L871.5 106.409L893.7 107.789L875.63 142.899L908.68 127.759Z" fill="#00A468"/>
<path d="M328.14 974.63L341.91 991.84L293.03 1013.88H252.4L216.6 957.41L228.99 945.71L253.78 971.19L255.16 922.99H276.5L273.06 983.58L290.96 953.28L313.17 954.66L295.09 989.78L328.14 974.63Z" fill="#00A468"/>
<path d="M214.68 1426.15L228.45 1443.36L179.56 1465.4H138.94L103.13 1408.94L115.53 1397.23L140.31 1422.71L141.69 1374.51H163.04L159.59 1435.1L177.5 1404.8L199.7 1406.18L181.63 1441.3L214.68 1426.15Z" fill="#00A468"/>
<path d="M2141.39 736.019L2243.7 544.029L2338.82 720.769L2141.39 736.019Z" fill="white" stroke="#BC7CD2" stroke-width="7" stroke-miterlimit="10"/>
<path d="M2336.88 730.129C2403.55 730.129 2457.6 676.081 2457.6 609.409C2457.6 542.738 2403.55 488.689 2336.88 488.689C2270.21 488.689 2216.16 542.738 2216.16 609.409C2216.16 676.081 2270.21 730.129 2336.88 730.129Z" fill="#BC7CD2"/>
<path d="M2206.41 574.332C2206.11 575.176 2205.67 575.845 2205.11 576.34C2204.53 576.831 2203.87 577.132 2203.13 577.24C2202.38 577.346 2201.6 577.256 2200.79 576.969C2199.99 576.681 2199.33 576.26 2198.82 575.706C2198.31 575.149 2197.99 574.5 2197.86 573.758C2197.73 573.014 2197.81 572.22 2198.11 571.376C2198.36 570.667 2198.71 570.083 2199.16 569.621C2199.6 569.159 2200.1 568.841 2200.66 568.665C2201.21 568.489 2201.79 568.46 2202.38 568.579L2201.87 570.003C2201.28 569.938 2200.76 570.058 2200.31 570.362C2199.85 570.659 2199.51 571.131 2199.28 571.779C2198.97 572.646 2199 573.421 2199.37 574.104C2199.73 574.777 2200.37 575.276 2201.28 575.601C2202.19 575.926 2203 575.944 2203.72 575.655C2204.43 575.355 2204.94 574.772 2205.25 573.906C2205.48 573.258 2205.51 572.675 2205.35 572.158C2205.19 571.634 2204.86 571.211 2204.36 570.889L2204.87 569.465C2205.4 569.749 2205.83 570.135 2206.15 570.622C2206.47 571.11 2206.65 571.673 2206.71 572.311C2206.76 572.95 2206.66 573.624 2206.41 574.332Z" fill="#BC7CD2"/>
<path d="M2216.51 548.346C2216.19 548.89 2215.77 549.229 2215.26 549.362C2214.74 549.495 2214.17 549.377 2213.55 549.007L2210.52 547.222L2211.18 546.095L2213.93 547.716C2214.34 547.955 2214.69 548.06 2214.98 548.03C2215.28 548.001 2215.53 547.81 2215.74 547.458C2215.98 547.052 2216.04 546.688 2215.92 546.368C2215.8 546.044 2215.55 545.77 2215.17 545.547L2212.45 543.945L2213.11 542.818L2217.93 545.657L2217.27 546.784L2216.59 546.388C2216.95 546.997 2216.92 547.649 2216.51 548.346Z" fill="#BC7CD2"/>
<path d="M2227.86 530.053C2227.58 530.403 2227.26 530.671 2226.91 530.859C2226.56 531.04 2226.21 531.124 2225.86 531.111C2225.51 531.087 2225.2 530.965 2224.92 530.745L2225.74 529.724C2225.93 529.874 2226.15 529.916 2226.39 529.848C2226.65 529.775 2226.88 529.607 2227.09 529.345C2227.24 529.151 2227.32 528.96 2227.32 528.773C2227.31 528.586 2227.23 528.429 2227.08 528.304C2226.95 528.199 2226.81 528.157 2226.67 528.179C2226.53 528.189 2226.34 528.283 2226.1 528.463L2225.17 529.147C2224.84 529.383 2224.5 529.5 2224.15 529.499C2223.81 529.491 2223.49 529.364 2223.18 529.119C2222.94 528.924 2222.78 528.678 2222.7 528.379C2222.61 528.075 2222.62 527.753 2222.72 527.412C2222.81 527.066 2222.99 526.734 2223.24 526.415C2223.67 525.878 2224.13 525.554 2224.62 525.443C2225.11 525.332 2225.56 525.444 2225.98 525.779L2225.18 526.782C2224.99 526.637 2224.8 526.593 2224.59 526.65C2224.38 526.696 2224.18 526.838 2223.99 527.075C2223.84 527.256 2223.77 527.441 2223.76 527.63C2223.74 527.814 2223.8 527.958 2223.93 528.063C2224.05 528.158 2224.19 528.197 2224.33 528.181C2224.48 528.159 2224.66 528.073 2224.88 527.925L2225.83 527.256C2226.16 527.014 2226.51 526.89 2226.88 526.884C2227.24 526.878 2227.58 526.997 2227.88 527.242C2228.31 527.582 2228.52 528.006 2228.51 528.513C2228.5 529.009 2228.28 529.523 2227.86 530.053Z" fill="#BC7CD2"/>
<path d="M2238.41 515.571C2238.6 515.385 2238.74 515.219 2238.85 515.072L2239.66 515.89C2239.5 516.115 2239.29 516.361 2239.02 516.626C2238.67 516.975 2238.28 517.191 2237.85 517.274C2237.43 517.346 2236.93 517.09 2236.35 516.505L2234.51 514.657L2233.84 515.324L2233.07 514.549L2233.74 513.881L2232.55 512.68L2233.48 511.759L2234.67 512.96L2235.58 512.056L2236.35 512.831L2235.44 513.735L2237.06 515.371C2237.28 515.592 2237.47 515.74 2237.62 515.814C2237.77 515.877 2237.91 515.889 2238.03 515.85C2238.15 515.799 2238.28 515.706 2238.41 515.571Z" fill="#BC7CD2"/>
<path d="M2249.08 506.918C2248.6 507.281 2248.1 507.496 2247.59 507.564C2247.08 507.631 2246.59 507.56 2246.13 507.348C2245.68 507.132 2245.28 506.804 2244.95 506.365C2244.61 505.926 2244.4 505.458 2244.31 504.961C2244.23 504.459 2244.3 503.97 2244.5 503.495C2244.7 503.02 2245.04 502.601 2245.52 502.238C2245.99 501.875 2246.49 501.659 2247 501.592C2247.51 501.524 2247.99 501.599 2248.45 501.815C2248.91 502.026 2249.31 502.351 2249.64 502.791C2249.98 503.23 2250.19 503.701 2250.27 504.202C2250.35 504.699 2250.3 505.185 2250.09 505.66C2249.89 506.135 2249.55 506.555 2249.08 506.918ZM2248.37 505.991C2248.78 505.681 2249 505.309 2249.03 504.873C2249.06 504.433 2248.92 504.003 2248.6 503.583C2248.28 503.162 2247.91 502.911 2247.47 502.829C2247.05 502.743 2246.63 502.854 2246.22 503.164C2245.81 503.474 2245.59 503.849 2245.55 504.29C2245.52 504.725 2245.67 505.153 2245.99 505.573C2246.31 505.993 2246.68 506.247 2247.11 506.334C2247.54 506.415 2247.96 506.301 2248.37 505.991Z" fill="#BC7CD2"/>
<path d="M2263.77 494.964L2261.33 489.931L2262.51 489.361L2262.85 490.063C2262.85 489.762 2262.93 489.475 2263.11 489.202C2263.29 488.922 2263.53 488.705 2263.85 488.551C2264.65 488.164 2265.32 488.207 2265.87 488.679C2265.87 488.36 2265.97 488.05 2266.17 487.749C2266.37 487.44 2266.64 487.202 2266.98 487.034C2268.19 486.449 2269.12 486.815 2269.75 488.132L2271.3 491.318L2270.12 491.888L2268.69 488.929C2268.49 488.519 2268.26 488.255 2268.01 488.137C2267.76 488.019 2267.48 488.035 2267.17 488.185C2266.84 488.346 2266.63 488.583 2266.55 488.897C2266.47 489.203 2266.56 489.634 2266.83 490.188L2268.12 492.856L2266.95 493.426L2265.51 490.456C2265.31 490.046 2265.09 489.783 2264.85 489.669C2264.6 489.548 2264.32 489.563 2264.01 489.713C2263.68 489.876 2263.46 490.117 2263.38 490.434C2263.29 490.741 2263.39 491.172 2263.66 491.726L2264.95 494.394L2263.77 494.964Z" fill="#BC7CD2"/>
<path d="M2292.05 475.422C2291.79 475.504 2291.54 475.485 2291.31 475.363C2291.08 475.233 2290.92 475.038 2290.84 474.778C2290.76 474.518 2290.78 474.273 2290.9 474.043C2291.02 473.806 2291.22 473.646 2291.48 473.564C2291.75 473.482 2292 473.505 2292.23 473.635C2292.46 473.757 2292.62 473.948 2292.7 474.208C2292.78 474.468 2292.76 474.717 2292.64 474.954C2292.52 475.184 2292.32 475.34 2292.05 475.422ZM2294.55 481.347L2293.31 481.727L2291.67 476.381L2292.91 476.001L2294.55 481.347Z" fill="#BC7CD2"/>
<path d="M2306.34 478.019L2301.46 479.007L2303.53 474.008L2300.82 474.559L2300.6 473.477L2305.44 472.495L2303.36 477.508L2306.12 476.949L2306.34 478.019Z" fill="#BC7CD2"/>
<path d="M2322.93 472.112C2322.94 472.28 2322.95 472.52 2322.94 472.833L2318.8 473.116C2318.85 473.554 2319.02 473.883 2319.3 474.104C2319.59 474.317 2319.97 474.407 2320.45 474.375C2320.77 474.353 2321.03 474.283 2321.22 474.166C2321.41 474.048 2321.56 473.878 2321.65 473.655L2322.97 473.565C2322.92 474.09 2322.66 474.536 2322.21 474.904C2321.76 475.263 2321.2 475.466 2320.53 475.512C2319.65 475.572 2318.94 475.356 2318.39 474.864C2317.85 474.372 2317.54 473.675 2317.48 472.773C2317.44 472.183 2317.52 471.66 2317.72 471.205C2317.92 470.743 2318.23 470.377 2318.63 470.109C2319.04 469.84 2319.52 469.687 2320.08 469.649C2320.61 469.613 2321.08 469.693 2321.49 469.889C2321.92 470.085 2322.25 470.375 2322.5 470.758C2322.75 471.142 2322.9 471.593 2322.93 472.112ZM2321.63 471.924C2321.59 471.494 2321.44 471.171 2321.18 470.957C2320.93 470.742 2320.57 470.65 2320.13 470.68C2319.67 470.711 2319.32 470.859 2319.08 471.125C2318.83 471.39 2318.72 471.723 2318.73 472.122L2321.63 471.924Z" fill="#BC7CD2"/>
<path d="M2352.49 469.662L2353.79 469.868L2352.9 475.414C2352.77 476.259 2352.42 476.876 2351.86 477.265C2351.33 477.618 2350.67 477.732 2349.89 477.607C2349.08 477.477 2348.47 477.187 2348.09 476.736C2347.75 476.325 2347.62 475.814 2347.7 475.203L2349 475.411C2348.98 475.732 2349.05 475.982 2349.2 476.16C2349.35 476.347 2349.63 476.472 2350.04 476.536C2350.45 476.602 2350.79 476.519 2351.07 476.289C2351.35 476.066 2351.54 475.674 2351.62 475.113L2351.74 474.414C2351.51 474.686 2351.24 474.877 2350.92 474.988C2350.59 475.09 2350.22 475.108 2349.81 475.043C2349.16 474.938 2348.69 474.648 2348.4 474.173C2348.12 473.691 2348.03 473.106 2348.14 472.419L2348.68 469.053L2349.97 469.259L2349.48 472.352C2349.4 472.802 2349.44 473.168 2349.58 473.45C2349.72 473.732 2350.01 473.908 2350.44 473.977C2350.88 474.046 2351.23 473.944 2351.5 473.672C2351.78 473.4 2351.96 473.015 2352.04 472.518L2352.49 469.662Z" fill="#BC7CD2"/>
<path d="M2371.69 479.006C2371.12 478.818 2370.66 478.532 2370.32 478.148C2369.97 477.764 2369.76 477.322 2369.67 476.821C2369.59 476.323 2369.64 475.812 2369.81 475.288C2369.98 474.764 2370.25 474.325 2370.61 473.973C2370.98 473.623 2371.42 473.397 2371.92 473.295C2372.43 473.192 2372.97 473.236 2373.54 473.424C2374.11 473.613 2374.56 473.899 2374.91 474.282C2375.25 474.666 2375.47 475.107 2375.55 475.605C2375.63 476.106 2375.59 476.619 2375.42 477.143C2375.24 477.667 2374.97 478.104 2374.6 478.454C2374.24 478.806 2373.81 479.033 2373.3 479.136C2372.8 479.238 2372.26 479.195 2371.69 479.006ZM2372.06 477.901C2372.54 478.062 2372.97 478.032 2373.35 477.811C2373.73 477.593 2374.01 477.233 2374.17 476.732C2374.34 476.23 2374.33 475.778 2374.16 475.373C2373.99 474.971 2373.66 474.69 2373.17 474.529C2372.69 474.368 2372.25 474.397 2371.87 474.615C2371.49 474.836 2371.22 475.197 2371.05 475.699C2370.89 476.2 2370.89 476.652 2371.06 477.053C2371.24 477.458 2371.57 477.74 2372.06 477.901Z" fill="#BC7CD2"/>
<path d="M2391.53 485.99C2390.97 485.698 2390.61 485.299 2390.45 484.792C2390.29 484.284 2390.38 483.708 2390.71 483.062L2392.34 479.944L2393.5 480.548L2392.02 483.379C2391.8 483.798 2391.72 484.154 2391.76 484.448C2391.81 484.743 2392.01 484.984 2392.37 485.172C2392.79 485.39 2393.16 485.432 2393.47 485.298C2393.79 485.156 2394.05 484.89 2394.25 484.5L2395.71 481.701L2396.87 482.305L2394.29 487.265L2393.13 486.661L2393.49 485.969C2392.9 486.356 2392.25 486.363 2391.53 485.99Z" fill="#BC7CD2"/>
<path d="M2408.73 495.233L2411.86 490.602L2412.94 491.335L2412.34 492.229C2412.63 491.972 2412.94 491.842 2413.28 491.84C2413.63 491.831 2413.94 491.921 2414.22 492.109C2414.4 492.23 2414.53 492.34 2414.62 492.438L2413.94 493.432C2413.84 493.343 2413.7 493.24 2413.53 493.123C2413.15 492.863 2412.75 492.801 2412.34 492.938C2411.93 493.069 2411.55 493.395 2411.2 493.919L2409.81 495.966L2408.73 495.233Z" fill="#BC7CD2"/>
<path d="M2434.13 507.581C2434.49 507.966 2434.72 508.389 2434.81 508.85C2434.92 509.312 2434.88 509.775 2434.7 510.239C2434.53 510.703 2434.24 511.135 2433.81 511.535C2433.4 511.924 2432.95 512.187 2432.46 512.324C2431.98 512.462 2431.5 512.464 2431.04 512.33C2430.57 512.197 2430.15 511.935 2429.79 511.544C2429.54 511.275 2429.36 510.967 2429.25 510.618C2429.15 510.264 2429.13 509.93 2429.21 509.615L2428.66 510.133L2427.77 509.188L2433.9 503.439L2434.79 504.384L2432.19 506.823C2432.51 506.765 2432.84 506.807 2433.19 506.948C2433.55 507.084 2433.86 507.295 2434.13 507.581ZM2430.51 510.607C2430.83 510.957 2431.22 511.131 2431.67 511.128C2432.12 511.119 2432.54 510.937 2432.92 510.581C2433.3 510.226 2433.5 509.825 2433.53 509.378C2433.57 508.927 2433.42 508.526 2433.09 508.176C2432.76 507.814 2432.36 507.635 2431.91 507.638C2431.47 507.641 2431.05 507.823 2430.67 508.184C2430.28 508.546 2430.07 508.949 2430.04 509.395C2430.01 509.842 2430.17 510.245 2430.51 510.607Z" fill="#BC7CD2"/>
<path d="M2443.17 526.117L2447.73 522.883L2448.49 523.95L2447.61 524.575C2447.97 524.436 2448.31 524.425 2448.63 524.542C2448.96 524.655 2449.21 524.848 2449.41 525.122C2449.53 525.299 2449.62 525.448 2449.67 525.571L2448.69 526.265C2448.62 526.145 2448.53 526 2448.41 525.83C2448.14 525.452 2447.79 525.254 2447.36 525.238C2446.93 525.217 2446.46 525.389 2445.94 525.754L2443.93 527.184L2443.17 526.117Z" fill="#BC7CD2"/>
<path d="M2451.95 538.782C2451.67 538.266 2451.55 537.764 2451.58 537.277C2451.62 536.796 2451.78 536.358 2452.07 535.962C2452.37 535.569 2452.77 535.242 2453.26 534.98C2453.75 534.723 2454.24 534.59 2454.74 534.583C2455.24 534.572 2455.7 534.691 2456.12 534.94C2456.55 535.192 2456.9 535.569 2457.16 536.071C2457.34 536.404 2457.43 536.745 2457.43 537.096C2457.44 537.446 2457.36 537.765 2457.19 538.051L2457.86 537.698L2458.46 538.845L2453.52 541.454L2452.91 540.307L2453.58 539.955C2453.26 539.933 2452.95 539.809 2452.64 539.583C2452.34 539.361 2452.11 539.094 2451.95 538.782ZM2453.06 538.409C2453.31 538.883 2453.65 539.166 2454.08 539.257C2454.51 539.355 2454.95 539.284 2455.41 539.045C2455.86 538.807 2456.17 538.481 2456.33 538.07C2456.5 537.665 2456.46 537.226 2456.21 536.752C2455.97 536.306 2455.64 536.031 2455.2 535.926C2454.78 535.824 2454.33 535.895 2453.87 536.137C2453.41 536.38 2453.1 536.707 2452.94 537.118C2452.79 537.533 2452.83 537.963 2453.06 538.409Z" fill="#BC7CD2"/>
<path d="M2462.1 559.199C2461.92 558.661 2461.88 558.151 2461.97 557.67C2462.08 557.197 2462.3 556.783 2462.64 556.43C2463 556.074 2463.44 555.804 2463.99 555.619C2464.54 555.434 2465.05 555.377 2465.54 555.448C2466.04 555.516 2466.47 555.708 2466.84 556.022C2467.21 556.344 2467.49 556.774 2467.67 557.312C2467.91 558.039 2467.93 558.686 2467.7 559.251C2467.49 559.821 2467.09 560.24 2466.5 560.509L2466.08 559.27C2466.36 559.097 2466.55 558.882 2466.63 558.626C2466.71 558.37 2466.69 558.057 2466.57 557.685C2466.42 557.246 2466.15 556.951 2465.77 556.801C2465.4 556.656 2464.95 556.675 2464.41 556.857C2463.87 557.04 2463.5 557.302 2463.28 557.645C2463.08 557.992 2463.05 558.386 2463.2 558.825C2463.44 559.53 2463.87 559.857 2464.5 559.806L2464.92 561.044C2464.3 561.187 2463.73 561.095 2463.23 560.768C2462.72 560.449 2462.35 559.926 2462.1 559.199Z" fill="#BC7CD2"/>
<path d="M2471.88 580.771C2471.72 580.8 2471.48 580.83 2471.17 580.861L2470.44 576.773C2470.01 576.865 2469.7 577.067 2469.51 577.376C2469.33 577.685 2469.28 578.075 2469.37 578.548C2469.42 578.863 2469.52 579.11 2469.66 579.288C2469.79 579.467 2469.98 579.593 2470.21 579.666L2470.44 580.965C2469.91 580.969 2469.44 580.764 2469.03 580.35C2468.62 579.943 2468.36 579.408 2468.24 578.747C2468.09 577.88 2468.23 577.149 2468.66 576.552C2469.09 575.956 2469.75 575.579 2470.64 575.421C2471.22 575.318 2471.75 575.342 2472.23 575.494C2472.71 575.644 2473.1 575.907 2473.41 576.283C2473.72 576.658 2473.93 577.122 2474.03 577.673C2474.12 578.193 2474.09 578.67 2473.94 579.103C2473.79 579.543 2473.54 579.909 2473.18 580.199C2472.83 580.49 2472.39 580.68 2471.88 580.771ZM2471.93 579.459C2472.35 579.375 2472.66 579.191 2472.84 578.907C2473.03 578.63 2473.08 578.271 2473.01 577.83C2472.93 577.381 2472.74 577.048 2472.45 576.831C2472.16 576.615 2471.82 576.537 2471.42 576.599L2471.93 579.459Z" fill="#BC7CD2"/>
<path d="M2471.26 597.828L2471.17 596.522L2479.55 595.972L2479.64 597.277L2471.26 597.828Z" fill="#BC7CD2"/>
<path d="M2474.89 611.02C2474.72 611.013 2474.48 610.99 2474.17 610.952L2474.35 606.804C2473.91 606.801 2473.57 606.93 2473.32 607.191C2473.07 607.452 2472.94 607.823 2472.92 608.302C2472.9 608.622 2472.94 608.884 2473.04 609.088C2473.14 609.293 2473.29 609.456 2473.5 609.577L2473.44 610.896C2472.92 610.785 2472.51 610.482 2472.2 609.988C2471.89 609.502 2471.75 608.923 2471.78 608.252C2471.82 607.372 2472.11 606.689 2472.66 606.201C2473.21 605.713 2473.94 605.489 2474.84 605.529C2475.43 605.555 2475.95 605.694 2476.37 605.945C2476.81 606.197 2477.14 606.539 2477.36 606.974C2477.58 607.408 2477.68 607.905 2477.66 608.464C2477.63 608.992 2477.5 609.45 2477.26 609.84C2477.02 610.238 2476.69 610.539 2476.28 610.746C2475.87 610.952 2475.41 611.043 2474.89 611.02ZM2475.22 609.75C2475.65 609.761 2475.99 609.648 2476.23 609.41C2476.48 609.181 2476.61 608.842 2476.63 608.394C2476.65 607.939 2476.54 607.574 2476.3 607.299C2476.07 607.024 2475.75 606.874 2475.35 606.848L2475.22 609.75Z" fill="#BC7CD2"/>
<path d="M2471.54 628.649C2471.5 628.91 2471.48 629.129 2471.48 629.308L2470.34 629.113C2470.34 628.837 2470.37 628.513 2470.44 628.143C2470.52 627.654 2470.71 627.252 2471.01 626.938C2471.31 626.633 2471.87 626.551 2472.68 626.69L2475.25 627.131L2475.41 626.197L2476.49 626.382L2476.33 627.316L2477.99 627.603L2477.77 628.892L2476.1 628.605L2475.89 629.871L2474.81 629.686L2475.03 628.42L2472.76 628.03C2472.45 627.977 2472.21 627.965 2472.05 627.993C2471.88 628.03 2471.77 628.099 2471.69 628.2C2471.63 628.31 2471.58 628.46 2471.54 628.649Z" fill="#BC7CD2"/>
<path d="M1429.54 692.6L1507.55 795.51L1498.11 796.19L1426.64 698.32L1351.89 701.25L1348.35 695.57L1429.54 692.6Z" fill="#FC6106"/>
<path d="M1346.87 696.359L1417.57 803.459L1412.88 823.659L1342.18 716.849L1346.87 696.359Z" fill="#5F8FFB"/>
<path d="M1417.57 803.46L1412.88 823.66L1506.65 818.02L1508.45 798.15L1417.57 803.46Z" fill="#FC6106"/>
<path d="M669.09 614.9C643.18 649.76 704.45 690.69 689.22 763.35C667.25 868.19 523.9 864.64 494.61 973.11C475.52 1043.82 510.82 1140.7 570.16 1172.34C597.46 1186.89 621.48 1183.18 652.75 1210.33C687.62 1240.61 673.11 1264.54 709.94 1275.46C738.81 1284.02 777.95 1255.1 797 1224.08C822.76 1182.12 800.84 1153.39 810.85 1102.29C824.65 1031.8 878.87 1022.4 923.63 955.76C974.57 879.91 1000 749.64 935.5 668.4C865.74 580.53 704.48 567.28 669.09 614.91V614.9Z" fill="#BC7CD2"/>
<path d="M2347.41 624.86C2379.27 598.8 2386.81 575.26 2386.97 564.58C2390.35 568.41 2397.25 576.69 2397.85 579.17C2398.59 582.27 2398.01 603.7 2355.78 639.23C2313.55 674.76 2292.36 668.39 2288.71 666.81C2285.79 665.55 2281.25 658.5 2279.35 655.14C2287.07 655.47 2307.72 657.33 2347.41 624.86Z" fill="white"/>
<path d="M2381.73 561.821C2384.33 564.471 2383 570.521 2382.01 573.221C2379.95 573.721 2379.35 573.781 2371.79 576.411C2364.23 579.041 2354.54 583.011 2348.32 587.781C2342.1 592.551 2338.15 593.951 2333.59 587.841C2327.38 579.511 2337.63 573.971 2353.73 566.011C2369.83 558.051 2378.47 558.511 2381.72 561.821H2381.73Z" fill="white"/>
<path d="M2276.1 647.971C2277.91 652.781 2285.87 653.381 2288.43 651.561C2290.01 647.911 2292.34 644.481 2294.54 640.021C2297.29 634.441 2308.81 621.031 2315.44 614.531C2322.07 608.021 2322.29 604.691 2316.29 601.021C2308.05 593.991 2296.36 610.111 2289.92 617.391C2283.48 624.671 2273.84 641.971 2276.1 647.971Z" fill="white"/>
<path d="M2326.39 601.681C2329.91 601.681 2332.76 598.829 2332.76 595.311C2332.76 591.793 2329.91 588.941 2326.39 588.941C2322.87 588.941 2320.02 591.793 2320.02 595.311C2320.02 598.829 2322.87 601.681 2326.39 601.681Z" fill="white"/>
<path d="M1226.92 1084.63L1222.62 1084.96L1220.76 1080.39L1208 1081.39L1206.93 1086.2L1202.63 1086.53L1210.61 1055.03L1214.12 1054.75L1226.92 1084.63ZM1212.75 1060.42L1208.86 1077.71L1219.39 1076.88L1212.75 1060.42ZM1240.59 1062.69C1246.37 1062.23 1250.7 1066.26 1251.2 1072.57C1251.69 1078.75 1247.87 1083.51 1242.04 1083.97C1238.92 1084.21 1235.99 1082.85 1234.48 1080.46L1234.76 1084.01L1230.99 1084.31L1228.58 1053.61L1232.35 1053.32L1233.46 1067.39C1234.57 1064.75 1237.34 1062.94 1240.59 1062.69ZM1241.24 1080.59C1245.14 1080.28 1247.72 1077.08 1247.39 1072.87C1247.06 1068.66 1244.01 1065.86 1240.11 1066.16C1236.08 1066.48 1233.46 1069.69 1233.79 1073.94C1234.12 1078.15 1237.21 1080.91 1241.24 1080.59ZM1266.49 1060.65C1272.28 1060.2 1276.61 1064.22 1277.1 1070.54C1277.59 1076.72 1273.77 1081.48 1267.94 1081.93C1264.83 1082.18 1261.9 1080.82 1260.39 1078.42L1260.67 1081.98L1256.89 1082.27L1254.48 1051.58L1258.26 1051.28L1259.36 1065.36C1260.48 1062.71 1263.25 1060.91 1266.49 1060.65ZM1267.15 1078.56C1271.05 1078.25 1273.62 1075.05 1273.29 1070.84C1272.96 1066.63 1269.92 1063.82 1266.01 1064.13C1261.98 1064.45 1259.36 1067.65 1259.7 1071.91C1260.03 1076.11 1263.11 1078.87 1267.15 1078.56ZM1296.5 1069.28L1295.68 1058.89L1299.45 1058.59L1301.07 1079.2C1301.32 1082.4 1300.55 1084.93 1298.92 1086.69C1297.41 1088.22 1295.24 1089.19 1292.47 1089.4C1289.58 1089.63 1287.15 1089.07 1285.47 1087.84C1283.93 1086.72 1283 1085.03 1282.78 1082.8L1286.59 1082.5C1286.96 1084.94 1288.41 1086.5 1292.18 1086.21C1295.6 1085.94 1297.64 1083.84 1297.28 1079.23L1296.98 1075.46C1295.99 1078.01 1293.71 1079.87 1290.29 1080.13C1285.03 1080.55 1282.34 1077.23 1281.94 1072.1L1280.99 1060.04L1284.76 1059.75L1285.65 1071.01C1285.93 1074.61 1287.31 1076.97 1291.3 1076.66C1295.2 1076.35 1296.78 1072.92 1296.5 1069.28ZM1333.07 1077C1323.12 1077.78 1316.65 1071.31 1315.94 1062.2C1315.22 1053.08 1320.6 1045.68 1330.55 1044.9C1338.84 1044.25 1344.46 1048.44 1346.09 1054.53L1341.7 1054.88C1340.22 1050.63 1336.53 1048.05 1330.88 1048.49C1323.42 1049.08 1319.54 1054.63 1320.1 1061.87C1320.67 1069.1 1325.38 1073.98 1332.83 1073.4C1338.49 1072.95 1341.73 1069.83 1342.53 1065.4L1346.91 1065.06C1346.26 1071.33 1341.36 1076.35 1333.07 1077ZM1361.14 1074.62C1354.69 1075.12 1350.77 1070.75 1350.31 1064.79C1349.84 1058.83 1353.28 1053.84 1359.55 1053.34C1362.75 1053.09 1365.51 1054.51 1366.98 1056.91L1366.7 1053.31L1370.47 1053.02L1372.06 1073.23L1368.29 1073.52L1368.01 1069.97C1366.93 1072.57 1364.16 1074.38 1361.14 1074.62ZM1361.39 1071.15C1365.82 1070.81 1367.97 1067.33 1367.67 1063.43C1367.36 1059.52 1364.69 1056.38 1360.26 1056.73C1356.1 1057.06 1353.75 1060.33 1354.08 1064.49C1354.4 1068.62 1357.23 1071.48 1361.39 1071.15ZM1385.8 1044.44C1384.27 1044.57 1382.23 1045.03 1382.5 1048.45L1382.78 1052.05L1388.48 1051.6L1388.73 1054.8L1383.03 1055.25L1384.37 1072.26L1380.55 1072.56L1379.22 1055.55L1374.92 1055.89L1374.67 1052.69L1378.97 1052.35L1378.69 1048.84C1378.2 1042.53 1382.38 1041.27 1384.57 1041.1C1385.88 1041 1387 1041.13 1387.68 1041.34L1387.93 1044.59C1387.26 1044.46 1386.59 1044.38 1385.8 1044.44ZM1403.24 1039.68L1405.57 1041.75L1398.7 1048.73L1396.38 1046.61L1403.24 1039.68ZM1410.58 1058.91C1410.63 1059.66 1410.68 1060.23 1410.66 1061.15L1395.01 1062.38C1395.4 1066.28 1398 1068.37 1401.85 1068.07C1404.53 1067.86 1406.29 1066.66 1406.97 1064.66L1410.78 1064.36C1410.37 1068.15 1406.85 1071.03 1402.12 1071.4C1395.89 1071.89 1391.66 1068.07 1391.15 1061.54C1390.65 1055.14 1394.26 1050.62 1400.27 1050.15C1405.97 1049.7 1410.14 1053.34 1410.58 1058.91ZM1394.78 1059.44L1406.79 1058.5C1406.51 1054.95 1404.15 1052.93 1400.47 1053.22C1396.78 1053.51 1394.69 1056.01 1394.78 1059.44Z" fill="white"/>
<path d="M1529.37 378.434C1519.39 378.434 1513.45 371.485 1513.45 362.337C1513.45 353.19 1519.39 346.241 1529.37 346.241C1537.68 346.241 1542.96 350.859 1544.11 357.06H1539.71C1538.56 352.706 1535.09 349.847 1529.42 349.847C1521.94 349.847 1517.63 355.081 1517.63 362.337C1517.63 369.594 1521.94 374.828 1529.42 374.828C1535.09 374.828 1538.56 371.969 1539.71 367.615H1544.11C1542.96 373.816 1537.68 378.434 1529.37 378.434ZM1557.54 378.258C1551.07 378.258 1547.51 373.596 1547.51 367.615C1547.51 361.634 1551.34 356.928 1557.63 356.928C1560.84 356.928 1563.47 358.555 1564.75 361.062V357.456H1568.53V377.73H1564.75V374.168C1563.47 376.675 1560.57 378.258 1557.54 378.258ZM1558.07 374.828C1562.51 374.828 1564.93 371.529 1564.93 367.615C1564.93 363.701 1562.51 360.358 1558.07 360.358C1553.89 360.358 1551.29 363.437 1551.29 367.615C1551.29 371.749 1553.89 374.828 1558.07 374.828ZM1586.38 356.928C1592.19 356.928 1596.19 361.282 1596.19 367.615C1596.19 373.816 1592.01 378.258 1586.16 378.258C1583.04 378.258 1580.22 376.675 1578.9 374.168V387.098H1575.12V357.456H1578.9V361.062C1580.22 358.511 1583.13 356.928 1586.38 356.928ZM1585.63 374.828C1589.55 374.828 1592.36 371.837 1592.36 367.615C1592.36 363.393 1589.55 360.358 1585.63 360.358C1581.59 360.358 1578.73 363.349 1578.73 367.615C1578.73 371.837 1581.59 374.828 1585.63 374.828ZM1619.05 366.472C1619.05 367.219 1619.05 367.791 1618.96 368.715H1603.26C1603.35 372.629 1605.77 374.916 1609.64 374.916C1612.32 374.916 1614.17 373.86 1615 371.925H1618.83C1618.13 375.663 1614.39 378.258 1609.64 378.258C1603.39 378.258 1599.48 374.124 1599.48 367.571C1599.48 361.15 1603.44 356.928 1609.46 356.928C1615.18 356.928 1619.05 360.886 1619.05 366.472ZM1603.26 365.768H1615.31C1615.31 362.206 1613.11 360.007 1609.42 360.007C1605.72 360.007 1603.44 362.337 1603.26 365.768ZM1627.87 377.73H1624.04V346.944H1627.87V377.73Z" fill="white"/>
<path d="M1965.02 752.312L1961.83 752.435L1961.59 746.198L1955.43 746.435L1955.31 743.433L1961.47 743.197L1961.23 736.921L1964.43 736.798L1964.67 743.074L1970.83 742.837L1970.94 745.839L1964.78 746.075L1965.02 752.312ZM1983.87 756.117L1980.36 756.252L1979.63 737.268L1974.09 737.481L1973.98 734.479C1978.73 734.296 1979.74 733.048 1979.61 729.734L1982.85 729.61L1983.87 756.117ZM2020.35 754.716L2016.53 754.862L2015.04 750.742L2003.7 751.178L2002.57 755.399L1998.75 755.545L2006.94 727.904L2010.06 727.784L2020.35 754.716ZM2008.65 732.757L2004.59 747.943L2013.94 747.583L2008.65 732.757ZM2030.73 751.506C2031.4 751.48 2032.48 751.321 2032.99 751.185L2033.1 754.187C2032.44 754.368 2031.24 754.531 2030.07 754.576C2027.97 754.657 2024.56 754.398 2024.34 748.589L2023.98 739.429L2020.75 739.553L2020.64 736.708L2023.88 736.583L2023.66 730.892L2027.05 730.762L2027.27 736.453L2031.79 736.279L2031.9 739.125L2027.38 739.299L2027.7 747.719C2027.83 751.149 2029.02 751.572 2030.73 751.506ZM2052.51 743.486C2052.53 744.149 2052.55 744.656 2052.5 745.477L2038.59 746.012C2038.8 749.478 2041.02 751.423 2044.45 751.291C2046.83 751.2 2048.43 750.201 2049.1 748.458L2052.5 748.327C2052 751.665 2048.77 754.092 2044.56 754.254C2039.03 754.466 2035.42 750.935 2035.2 745.127C2034.98 739.436 2038.34 735.559 2043.68 735.354C2048.75 735.159 2052.32 738.536 2052.51 743.486ZM2038.49 743.4L2049.17 742.99C2049.05 739.832 2047.02 737.958 2043.75 738.084C2040.47 738.21 2038.53 740.354 2038.49 743.4ZM2060.7 753.165L2057.31 753.296L2056.62 735.325L2060.01 735.195L2060.17 739.288C2060.76 736.22 2063 734.807 2065.27 734.72C2065.89 734.696 2066.48 734.712 2066.91 734.813L2067.03 737.931C2066.44 737.837 2065.97 737.855 2065.35 737.879C2061.8 738.015 2060.25 741.315 2060.4 745.33L2060.7 753.165ZM2074.75 752.626L2071.36 752.756L2070.31 725.469L2073.7 725.339L2074.75 752.626ZM2081.48 731.286C2079.84 731.349 2078.66 730.184 2078.6 728.664C2078.55 727.144 2079.63 725.853 2081.27 725.79C2082.86 725.729 2084.04 726.933 2084.1 728.453C2084.16 729.973 2083.08 731.225 2081.48 731.286ZM2083.96 752.272L2080.61 752.401L2079.92 734.43L2083.27 734.301L2083.96 752.272ZM2105.34 741.456C2105.37 742.119 2105.39 742.626 2105.34 743.448L2091.43 743.982C2091.64 747.448 2093.86 749.393 2097.29 749.261C2099.67 749.17 2101.27 748.172 2101.94 746.428L2105.33 746.298C2104.84 749.635 2101.61 752.062 2097.4 752.224C2091.87 752.437 2088.26 748.906 2088.03 743.097C2087.82 737.406 2091.18 733.529 2096.52 733.324C2101.59 733.129 2105.15 736.506 2105.34 741.456ZM2091.32 741.37L2102.01 740.96C2101.88 737.803 2099.86 735.928 2096.59 736.054C2093.31 736.18 2091.36 738.324 2091.32 741.37ZM2113.54 751.135L2110.15 751.266L2109.46 733.295L2112.85 733.165L2113.01 737.258C2113.59 734.191 2115.84 732.777 2118.1 732.69C2118.73 732.666 2119.31 732.683 2119.75 732.783L2119.87 735.902C2119.28 735.807 2118.81 735.825 2118.19 735.849C2114.64 735.985 2113.09 739.285 2113.24 743.3L2113.54 751.135Z" fill="white"/>
<path d="M1968.21 800.693L1965.02 800.816L1964.78 794.579L1958.62 794.816L1958.5 791.814L1964.66 791.578L1964.42 785.302L1967.62 785.179L1967.86 791.455L1974.02 791.218L1974.13 794.22L1967.97 794.456L1968.21 800.693ZM1987.06 804.498L1983.55 804.633L1982.82 785.649L1977.28 785.862L1977.17 782.86C1981.92 782.677 1982.93 781.428 1982.8 778.115L1986.04 777.991L1987.06 804.498ZM2012.49 804.146C2006.29 804.384 2002.49 801.055 2002.27 795.208L2005.82 795.072C2005.96 798.892 2008.43 801.178 2012.33 801.029C2015.76 800.897 2017.65 799.185 2017.54 796.339C2017.44 793.922 2016.19 792.643 2012.99 791.673L2008.4 790.249C2004.69 789.22 2002.77 786.912 2002.63 783.287C2002.46 778.921 2005.86 775.824 2010.93 775.629C2016.3 775.423 2019.9 778.564 2020.09 783.631L2016.55 783.768C2016.42 780.415 2014.39 778.541 2010.93 778.674C2007.88 778.791 2006.08 780.5 2006.17 782.956C2006.26 785.256 2007.8 786.641 2011.19 787.643L2015.46 788.962C2019.01 790.036 2020.94 792.383 2021.08 796.086C2021.26 800.764 2017.91 803.937 2012.49 804.146ZM2033.32 803.189C2027.59 803.409 2024.28 799.398 2024.07 794.097C2023.87 788.795 2027.1 784.494 2032.68 784.28C2035.52 784.171 2037.92 785.523 2039.13 787.702L2039.01 784.505L2042.36 784.376L2043.05 802.347L2039.7 802.476L2039.58 799.318C2038.53 801.583 2036.01 803.086 2033.32 803.189ZM2033.68 800.13C2037.61 799.979 2039.64 796.973 2039.51 793.504C2039.38 790.035 2037.12 787.154 2033.18 787.306C2029.48 787.448 2027.28 790.265 2027.43 793.968C2027.57 797.632 2029.97 800.273 2033.68 800.13ZM2052.28 801.992L2048.89 802.122L2047.84 774.836L2051.23 774.705L2052.28 801.992ZM2066.07 801.931C2060.23 802.156 2056.56 798.08 2056.36 792.857C2056.15 787.594 2059.5 783.25 2065.35 783.025C2071.16 782.802 2074.86 786.876 2075.07 792.138C2075.27 797.361 2071.88 801.708 2066.07 801.931ZM2065.96 798.89C2069.74 798.745 2071.81 795.855 2071.68 792.268C2071.54 788.643 2069.24 785.92 2065.46 786.066C2061.68 786.211 2059.57 789.103 2059.71 792.728C2059.85 796.314 2062.18 799.036 2065.96 798.89ZM2083.16 800.806L2079.76 800.936L2079.07 782.966L2082.47 782.836L2082.59 786.149C2083.48 783.812 2085.61 782.247 2088.72 782.127C2093.13 781.958 2095.49 784.444 2095.67 789.238L2096.1 800.309L2092.75 800.438L2092.38 790.848C2092.22 786.833 2090.82 784.974 2087.63 785.097C2084.28 785.226 2082.65 787.669 2082.79 791.295L2083.16 800.806Z" fill="white"/>
<path d="M1969.13 882.912L1965.94 883.035L1965.7 876.798L1959.54 877.034L1959.42 874.033L1965.58 873.796L1965.34 867.52L1968.54 867.398L1968.78 873.673L1974.94 873.437L1975.05 876.438L1968.89 876.675L1969.13 882.912ZM1987.98 886.717L1984.47 886.851L1983.74 867.868L1978.2 868.08L1978.09 865.079C1982.84 864.896 1983.85 863.647 1983.72 860.334L1986.96 860.209L1987.98 886.717ZM2020.44 885.47L2005.28 886.052L2004.23 858.765L2007.78 858.629L2008.7 882.563L2020.31 882.117L2020.44 885.47ZM2025.82 864.182C2024.18 864.245 2023.01 863.08 2022.95 861.56C2022.89 860.039 2023.97 858.748 2025.61 858.686C2027.21 858.624 2028.39 859.828 2028.44 861.348C2028.5 862.869 2027.42 864.121 2025.82 864.182ZM2028.31 885.167L2024.95 885.296L2024.26 867.326L2027.62 867.197L2028.31 885.167ZM2042.04 884.64L2039.27 884.746L2030.67 867.08L2034.29 866.94L2040.46 880.172L2045.64 866.505L2049.26 866.365L2042.04 884.64ZM2053.84 863.106C2052.2 863.168 2051.02 862.003 2050.97 860.483C2050.91 858.963 2051.99 857.672 2053.63 857.609C2055.23 857.548 2056.4 858.752 2056.46 860.272C2056.52 861.792 2055.44 863.044 2053.84 863.106ZM2056.32 884.091L2052.97 884.22L2052.28 866.249L2055.63 866.121L2056.32 884.091ZM2065.58 883.736L2062.18 883.866L2061.49 865.896L2064.88 865.765L2065.01 869.079C2065.9 866.741 2068.02 865.176 2071.14 865.056C2075.55 864.887 2077.91 867.373 2078.09 872.168L2078.52 883.238L2075.16 883.367L2074.8 873.778C2074.64 869.763 2073.24 867.904 2070.05 868.026C2066.69 868.155 2065.07 870.599 2065.21 874.224L2065.58 883.736ZM2097.46 867.715L2097.33 864.519L2100.69 864.39L2101.36 881.892C2101.49 885.323 2100.5 887.938 2098.53 889.575C2097.05 890.763 2094.97 891.39 2092.4 891.489C2089.94 891.583 2087.62 891.087 2085.94 889.98C2084.3 888.911 2083.26 887.273 2083.1 885.326L2086.65 885.19C2086.97 887.286 2088.82 888.777 2092.25 888.645C2096.15 888.495 2098.18 886.543 2098.02 882.255L2097.9 879.332C2096.86 881.636 2094.26 883.102 2091.65 883.202C2086.15 883.414 2082.6 879.412 2082.4 874.11C2082.19 868.77 2085.66 864.499 2091 864.294C2093.77 864.187 2096.24 865.459 2097.46 867.715ZM2092 880.144C2095.78 879.999 2097.97 877.026 2097.84 873.517C2097.7 869.97 2095.29 867.174 2091.51 867.319C2087.92 867.457 2085.61 870.278 2085.75 873.982C2085.89 877.646 2088.45 880.28 2092 880.144Z" fill="white"/>
<path d="M1967.29 928.973L1964.1 929.095L1963.86 922.858L1957.7 923.095L1957.58 920.093L1963.74 919.857L1963.5 913.581L1966.7 913.458L1966.94 919.734L1973.1 919.497L1973.21 922.499L1967.05 922.736L1967.29 928.973ZM1986.14 932.777L1982.63 932.912L1981.9 913.928L1976.36 914.141L1976.25 911.139C1981 910.957 1982.01 909.708 1981.88 906.394L1985.12 906.27L1986.14 932.777ZM2017.94 918.282L2031.27 917.77L2031.39 920.967L2028.39 921.082C2027.47 927.559 2023.15 931.98 2015.82 932.262C2007.09 932.597 2001.55 926.603 2001.28 918.688C2000.98 910.931 2005.64 904.076 2014.88 903.721C2021.27 903.476 2026.09 906.921 2026.97 911.689L2023.08 911.839C2022.18 908.867 2019.25 906.755 2015 906.918C2008.02 907.186 2004.71 912.349 2004.99 918.546C2005.18 924.628 2009.22 929.314 2015.7 929.065C2020.84 928.867 2023.9 926.056 2024.69 921.224L2018.06 921.479L2017.94 918.282ZM2042.99 931.062C2037.26 931.282 2033.94 927.271 2033.74 921.97C2033.53 916.668 2036.76 912.367 2042.34 912.153C2045.18 912.043 2047.58 913.396 2048.79 915.574L2048.67 912.378L2052.02 912.249L2052.71 930.22L2049.36 930.348L2049.24 927.191C2048.2 929.456 2045.68 930.958 2042.99 931.062ZM2043.34 928.003C2047.28 927.852 2049.31 924.846 2049.17 921.377C2049.04 917.907 2046.78 915.027 2042.85 915.178C2039.14 915.321 2036.95 918.138 2037.09 921.841C2037.23 925.505 2039.63 928.145 2043.34 928.003ZM2061.95 929.865L2058.55 929.995L2057.51 902.708L2060.9 902.578L2061.95 929.865ZM2071.2 929.51L2067.81 929.64L2066.76 902.353L2070.15 902.223L2071.2 929.51ZM2092.58 918.694C2092.6 919.357 2092.62 919.864 2092.57 920.685L2078.66 921.22C2078.87 924.686 2081.09 926.631 2084.52 926.499C2086.9 926.408 2088.5 925.409 2089.18 923.666L2092.57 923.535C2092.07 926.873 2088.85 929.3 2084.64 929.462C2079.1 929.674 2075.49 926.143 2075.27 920.335C2075.05 914.644 2078.41 910.767 2083.75 910.562C2088.82 910.367 2092.39 913.744 2092.58 918.694ZM2078.56 918.608L2089.24 918.198C2089.12 915.04 2087.09 913.166 2083.82 913.292C2080.54 913.418 2078.6 915.562 2078.56 918.608ZM2100.77 928.373L2097.38 928.504L2096.69 910.533L2100.08 910.403L2100.24 914.496C2100.83 911.428 2103.08 910.015 2105.34 909.928C2105.96 909.904 2106.55 909.92 2106.98 910.021L2107.1 913.139C2106.51 913.045 2106.04 913.063 2105.42 913.087C2101.87 913.223 2100.32 916.523 2100.47 920.538L2100.77 928.373ZM2123.96 918.738L2123.6 909.499L2126.96 909.371L2127.66 927.692C2127.77 930.537 2127 932.753 2125.49 934.256C2124.1 935.558 2122.14 936.336 2119.68 936.431C2117.11 936.53 2114.98 935.948 2113.53 934.793C2112.2 933.751 2111.44 932.219 2111.32 930.232L2114.71 930.102C2114.95 932.279 2116.18 933.715 2119.53 933.587C2122.57 933.47 2124.46 931.68 2124.3 927.587L2124.17 924.234C2123.2 926.458 2121.11 928.021 2118.07 928.138C2113.4 928.318 2111.13 925.282 2110.96 920.721L2110.55 910.001L2113.9 909.872L2114.28 919.89C2114.41 923.087 2115.54 925.229 2119.09 925.093C2122.56 924.96 2124.08 921.973 2123.96 918.738Z" fill="white"/>
<path d="M2141.39 804.89L2355.98 772.42L2274.84 959.6L2141.39 804.89Z" fill="white" stroke="#FF5F01" stroke-width="7" stroke-miterlimit="10"/>
<path d="M2359.95 1006.1C2426.62 1006.1 2480.67 952.052 2480.67 885.38C2480.67 818.708 2426.62 764.66 2359.95 764.66C2293.28 764.66 2239.23 818.708 2239.23 885.38C2239.23 952.052 2293.28 1006.1 2359.95 1006.1Z" fill="#FF5F01"/>
<path d="M2397.43 751.687C2396.51 751.373 2395.88 750.887 2395.53 750.23C2395.2 749.575 2395.18 748.801 2395.49 747.907L2396.79 748.351C2396.62 748.866 2396.62 749.319 2396.8 749.71C2396.98 750.101 2397.32 750.38 2397.81 750.547C2398.24 750.694 2398.6 750.711 2398.89 750.599C2399.2 750.482 2399.41 750.246 2399.53 749.89C2399.63 749.587 2399.63 749.315 2399.51 749.074C2399.41 748.835 2399.16 748.549 2398.78 748.215L2397.66 747.252C2397.23 746.885 2396.94 746.484 2396.8 746.048C2396.67 745.604 2396.69 745.129 2396.86 744.621C2397 744.197 2397.24 743.855 2397.56 743.594C2397.9 743.335 2398.29 743.18 2398.73 743.13C2399.18 743.08 2399.65 743.138 2400.14 743.305C2400.67 743.483 2401.09 743.741 2401.42 744.08C2401.75 744.421 2401.95 744.817 2402.04 745.267C2402.13 745.721 2402.09 746.194 2401.92 746.686L2400.62 746.242C2400.77 745.802 2400.76 745.425 2400.61 745.111C2400.46 744.789 2400.16 744.553 2399.72 744.403C2399.35 744.277 2399.03 744.269 2398.75 744.379C2398.49 744.483 2398.31 744.687 2398.2 744.99C2398.11 745.263 2398.13 745.532 2398.27 745.799C2398.41 746.065 2398.68 746.373 2399.08 746.722L2400.09 747.597C2400.52 747.972 2400.8 748.383 2400.93 748.832C2401.06 749.273 2401.03 749.762 2400.85 750.3C2400.69 750.747 2400.45 751.107 2400.11 751.381C2399.77 751.654 2399.37 751.818 2398.91 751.87C2398.45 751.926 2397.96 751.865 2397.43 751.687Z" fill="#FF5F01"/>
<path d="M2418.54 752.429C2418.29 752.31 2418.12 752.128 2418.03 751.883C2417.94 751.631 2417.96 751.382 2418.08 751.136C2418.19 750.889 2418.37 750.722 2418.62 750.634C2418.86 750.538 2419.12 750.55 2419.37 750.669C2419.62 750.788 2419.79 750.974 2419.88 751.226C2419.96 751.471 2419.95 751.716 2419.84 751.962C2419.72 752.208 2419.54 752.379 2419.29 752.475C2419.04 752.563 2418.8 752.548 2418.54 752.429ZM2416.41 758.493L2415.24 757.942L2417.61 752.881L2418.79 753.432L2416.41 758.493Z" fill="#FF5F01"/>
<path d="M2430.21 758.996L2431.32 759.686L2428.5 764.232C2428.2 764.701 2427.88 765.063 2427.51 765.316C2427.15 765.574 2426.77 765.719 2426.37 765.749C2425.82 765.796 2425.19 765.597 2424.48 765.154C2423.78 764.724 2423.31 764.235 2423.07 763.688C2422.94 763.388 2422.87 763.083 2422.87 762.775C2422.88 762.47 2422.97 762.187 2423.12 761.924L2424.28 762.646C2424.17 762.927 2424.18 763.202 2424.29 763.472C2424.41 763.745 2424.66 763.998 2425.04 764.23C2425.5 764.522 2425.92 764.622 2426.29 764.53C2426.66 764.449 2427.01 764.147 2427.33 763.624L2427.66 763.104C2427.38 763.251 2427.05 763.304 2426.67 763.266C2426.3 763.224 2425.96 763.111 2425.66 762.925C2425.18 762.625 2424.83 762.257 2424.61 761.82C2424.4 761.387 2424.32 760.921 2424.36 760.423C2424.42 759.928 2424.59 759.446 2424.88 758.977C2425.17 758.515 2425.53 758.155 2425.96 757.897C2426.39 757.639 2426.86 757.513 2427.35 757.519C2427.85 757.519 2428.33 757.662 2428.8 757.949C2429.12 758.148 2429.37 758.397 2429.55 758.698C2429.73 758.998 2429.81 759.312 2429.81 759.638L2430.21 758.996ZM2426.44 762.038C2426.87 762.308 2427.31 762.378 2427.74 762.249C2428.17 762.113 2428.52 761.831 2428.78 761.403C2429.05 760.975 2429.15 760.54 2429.07 760.098C2429 759.65 2428.75 759.291 2428.31 759.02C2427.9 758.763 2427.47 758.697 2427.04 758.822C2426.61 758.944 2426.27 759.226 2425.99 759.668C2425.72 760.109 2425.62 760.551 2425.69 760.993C2425.78 761.432 2426.03 761.78 2426.44 762.038Z" fill="#FF5F01"/>
<path d="M2443.09 773.706L2446.76 769.487L2447.75 770.345L2447.24 770.934C2447.56 770.826 2447.9 770.814 2448.24 770.898C2448.58 770.982 2448.9 771.161 2449.22 771.434C2449.72 771.875 2449.98 772.35 2450 772.86C2450.01 773.369 2449.78 773.899 2449.3 774.448L2446.99 777.101L2446.01 776.242L2447.92 774.042C2448.32 773.583 2448.53 773.194 2448.57 772.874C2448.6 772.554 2448.45 772.247 2448.11 771.953C2447.79 771.675 2447.46 771.562 2447.1 771.615C2446.76 771.662 2446.42 771.873 2446.09 772.247L2444.08 774.565L2443.09 773.706Z" fill="#FF5F01"/>
<path d="M2460.87 789.883C2460.49 789.434 2460.27 788.969 2460.2 788.485C2460.14 788.008 2460.2 787.545 2460.4 787.098C2460.61 786.651 2460.93 786.248 2461.36 785.889C2461.79 785.535 2462.24 785.303 2462.72 785.193C2463.21 785.078 2463.68 785.098 2464.15 785.253C2464.62 785.41 2465.04 785.706 2465.4 786.142C2465.65 786.43 2465.8 786.746 2465.88 787.088C2465.96 787.43 2465.95 787.758 2465.84 788.073L2466.42 787.588L2467.25 788.583L2462.96 792.167L2462.13 791.172L2462.71 790.688C2462.4 790.733 2462.06 790.677 2461.71 790.521C2461.37 790.366 2461.09 790.153 2460.87 789.883ZM2461.88 789.284C2462.23 789.696 2462.62 789.901 2463.06 789.901C2463.5 789.906 2463.92 789.745 2464.31 789.417C2464.7 789.089 2464.93 788.707 2465.01 788.27C2465.09 787.84 2464.95 787.419 2464.61 787.008C2464.29 786.621 2463.9 786.421 2463.45 786.409C2463.02 786.399 2462.6 786.56 2462.2 786.893C2461.8 787.226 2461.57 787.611 2461.49 788.048C2461.43 788.485 2461.56 788.897 2461.88 789.284Z" fill="#FF5F01"/>
<path d="M2474.59 807.05L2473.88 805.956L2480.9 801.354L2481.62 802.448L2474.59 807.05Z" fill="#FF5F01"/>
<path d="M2484.48 823.976C2484.3 823.566 2484.21 823.16 2484.2 822.759C2484.21 822.365 2484.29 822.016 2484.47 821.713C2484.65 821.415 2484.9 821.195 2485.23 821.053L2485.75 822.251C2485.53 822.348 2485.39 822.522 2485.34 822.773C2485.29 823.032 2485.33 823.315 2485.46 823.623C2485.56 823.85 2485.69 824.006 2485.86 824.089C2486.03 824.173 2486.21 824.175 2486.39 824.094C2486.54 824.027 2486.64 823.926 2486.69 823.792C2486.75 823.663 2486.75 823.452 2486.7 823.159L2486.53 822.016C2486.47 821.612 2486.53 821.257 2486.69 820.95C2486.85 820.65 2487.12 820.422 2487.47 820.264C2487.76 820.139 2488.05 820.111 2488.35 820.18C2488.66 820.246 2488.95 820.401 2489.2 820.647C2489.47 820.89 2489.68 821.198 2489.84 821.572C2490.12 822.202 2490.19 822.759 2490.06 823.243C2489.94 823.727 2489.63 824.077 2489.14 824.292L2488.62 823.116C2488.83 823.023 2488.96 822.87 2489.01 822.658C2489.07 822.449 2489.03 822.206 2488.91 821.927C2488.82 821.715 2488.69 821.562 2488.53 821.467C2488.37 821.37 2488.21 821.355 2488.06 821.422C2487.92 821.483 2487.83 821.582 2487.77 821.719C2487.72 821.864 2487.71 822.064 2487.75 822.32L2487.9 823.472C2487.96 823.883 2487.9 824.252 2487.74 824.576C2487.58 824.901 2487.32 825.142 2486.96 825.3C2486.46 825.518 2485.99 825.507 2485.54 825.266C2485.1 825.029 2484.75 824.599 2484.48 823.976Z" fill="#FF5F01"/>
<path d="M2492.43 840.076C2492.51 840.328 2492.59 840.533 2492.67 840.692L2491.57 841.034C2491.45 840.788 2491.33 840.486 2491.21 840.127C2491.07 839.653 2491.05 839.209 2491.18 838.794C2491.31 838.384 2491.77 838.057 2492.56 837.812L2495.04 837.039L2494.76 836.134L2495.8 835.81L2496.09 836.715L2497.7 836.213L2498.09 837.462L2496.47 837.964L2496.85 839.19L2495.81 839.515L2495.43 838.288L2493.23 838.972C2492.93 839.065 2492.72 839.162 2492.58 839.263C2492.45 839.369 2492.38 839.484 2492.36 839.608C2492.35 839.736 2492.37 839.892 2492.43 840.076Z" fill="#FF5F01"/>
<path d="M2495.18 853.309C2495.08 852.733 2495.12 852.219 2495.3 851.766C2495.49 851.32 2495.78 850.954 2496.17 850.667C2496.58 850.386 2497.06 850.199 2497.61 850.104C2498.16 850.011 2498.66 850.038 2499.14 850.185C2499.62 850.33 2500.02 850.586 2500.34 850.953C2500.67 851.326 2500.88 851.793 2500.98 852.353C2501.04 852.723 2501.02 853.076 2500.92 853.41C2500.81 853.745 2500.64 854.022 2500.39 854.243L2501.14 854.116L2501.35 855.393L2495.84 856.336L2495.62 855.059L2496.37 854.931C2496.07 854.812 2495.81 854.596 2495.59 854.286C2495.37 853.981 2495.24 853.656 2495.18 853.309ZM2496.36 853.302C2496.45 853.83 2496.68 854.204 2497.06 854.423C2497.44 854.65 2497.88 854.721 2498.39 854.634C2498.89 854.548 2499.29 854.335 2499.57 853.994C2499.85 853.661 2499.95 853.231 2499.86 852.703C2499.77 852.206 2499.54 851.84 2499.16 851.605C2498.79 851.376 2498.35 851.306 2497.83 851.394C2497.32 851.481 2496.92 851.695 2496.64 852.036C2496.37 852.383 2496.27 852.805 2496.36 853.302Z" fill="#FF5F01"/>
<path d="M2499.63 876.152C2499.64 876.416 2499.66 876.635 2499.7 876.81L2498.55 876.852C2498.49 876.582 2498.45 876.259 2498.44 875.884C2498.42 875.388 2498.53 874.956 2498.75 874.587C2498.99 874.226 2499.52 874.031 2500.34 874.001L2502.94 873.905L2502.91 872.958L2504 872.918L2504.03 873.865L2505.72 873.803L2505.77 875.11L2504.08 875.172L2504.13 876.456L2503.04 876.496L2502.99 875.212L2500.69 875.297C2500.38 875.308 2500.14 875.345 2499.98 875.407C2499.83 875.476 2499.73 875.568 2499.68 875.682C2499.64 875.804 2499.62 875.96 2499.63 876.152Z" fill="#FF5F01"/>
<path d="M2498.81 889.571C2498.86 888.941 2499.1 888.456 2499.5 888.115C2499.91 887.775 2500.48 887.637 2501.2 887.702L2504.71 888.017L2504.59 889.32L2501.41 889.034C2500.94 888.991 2500.58 889.047 2500.32 889.201C2500.07 889.355 2499.92 889.635 2499.88 890.041C2499.84 890.511 2499.94 890.866 2500.19 891.105C2500.44 891.344 2500.78 891.484 2501.22 891.523L2504.36 891.806L2504.25 893.108L2498.68 892.607L2498.8 891.305L2499.57 891.375C2498.99 890.977 2498.73 890.375 2498.81 889.571Z" fill="#FF5F01"/>
<path d="M2498.89 914.714C2498.72 914.674 2498.49 914.605 2498.2 914.508L2499.18 910.475C2498.75 910.386 2498.38 910.445 2498.09 910.652C2497.8 910.861 2497.6 911.199 2497.48 911.665C2497.41 911.976 2497.39 912.241 2497.45 912.46C2497.5 912.679 2497.62 912.869 2497.8 913.029L2497.49 914.311C2497.01 914.102 2496.66 913.725 2496.44 913.179C2496.24 912.642 2496.21 912.048 2496.37 911.395C2496.58 910.54 2497 909.927 2497.64 909.554C2498.27 909.182 2499.03 909.104 2499.91 909.318C2500.48 909.459 2500.96 909.694 2501.33 910.024C2501.71 910.355 2501.97 910.756 2502.1 911.225C2502.23 911.693 2502.23 912.2 2502.1 912.744C2501.97 913.257 2501.75 913.681 2501.44 914.016C2501.13 914.359 2500.75 914.592 2500.31 914.715C2499.86 914.838 2499.39 914.837 2498.89 914.714ZM2499.46 913.532C2499.88 913.627 2500.23 913.581 2500.52 913.395C2500.8 913.217 2500.99 912.911 2501.1 912.476C2501.21 912.033 2501.17 911.653 2501 911.338C2500.82 911.023 2500.53 910.814 2500.15 910.711L2499.46 913.532Z" fill="#FF5F01"/>
<path d="M2347.67 800.849C2351.41 797.989 2357.17 799.749 2362.99 802.609C2368.81 805.469 2373.21 806.569 2373.43 809.879C2373.65 813.179 2371.23 816.049 2371.23 816.049C2371.23 816.049 2374.97 824.419 2376.07 828.379C2376.9 831.349 2377.35 835.639 2382.72 840.849C2383.06 841.179 2384.45 840.269 2384.96 840.349C2385.47 840.429 2385.5 840.289 2385.87 840.749C2386.28 841.259 2387.15 839.959 2388.17 840.809C2388.61 841.169 2388.23 841.969 2388.36 842.369C2388.44 842.609 2389.76 841.969 2390.27 843.339C2390.67 844.409 2389.38 846.019 2389.94 846.369C2402.28 854.089 2412.4 861.629 2412.4 861.629L2407.34 876.969C2407.34 876.969 2408 880.629 2404.48 881.819C2402.72 885.869 2399.64 888.899 2399.64 888.899C2399.64 888.899 2401.62 890.049 2398.76 893.129C2395.9 896.209 2389.73 897.309 2387.09 899.299C2384.45 901.289 2387.97 899.739 2387.53 902.819C2387.09 905.899 2390.83 907.439 2392.37 909.649C2393.91 911.859 2397.43 919.479 2397.43 919.479C2397.43 919.479 2393.03 920.879 2386.86 914.269C2384.44 911.189 2385.98 922.639 2385.98 922.639C2385.98 922.639 2392.81 920.769 2393.91 923.899C2395.01 927.029 2395.89 933.779 2398.31 934.149C2400.51 934.519 2395.23 935.839 2395.23 935.839C2395.23 935.839 2401.62 938.259 2400.51 944.869C2399.4 951.479 2392.14 959.619 2392.14 959.619H2326.75C2326.75 959.619 2313.82 941.889 2319.7 938.039C2325.42 934.299 2332.47 932.099 2331.81 930.549C2331.15 928.999 2321.24 928.129 2320.14 930.549C2319.04 932.969 2321.46 919.029 2327.85 919.399C2334.24 919.759 2323.23 918.439 2323.23 918.439C2323.23 918.439 2322.57 911.389 2325.21 909.849C2327.85 908.309 2329.17 908.449 2329.17 908.449C2329.17 908.449 2327.69 908.139 2327.29 906.739C2326.89 905.339 2327.99 904.639 2327.99 904.639C2327.99 904.639 2326.39 903.939 2326.39 902.339C2326.39 900.739 2327.99 900.739 2327.99 900.739C2327.99 900.739 2326.69 900.339 2326.99 898.739C2327.29 897.139 2328.99 896.639 2328.99 896.639C2328.99 896.639 2327.29 896.839 2327.59 895.039C2327.89 893.239 2330.59 892.739 2330.59 892.739C2330.59 892.739 2327.59 884.239 2327.89 881.249C2328.19 878.259 2332.91 862.449 2332.91 862.449C2332.91 862.449 2331.82 862.259 2331.12 861.159C2330.42 860.059 2330.89 859.419 2330.89 859.419C2330.89 859.419 2329.32 858.669 2329.79 857.159C2330.26 855.649 2331.65 855.129 2331.65 855.129C2331.65 855.129 2331.3 854.609 2331.88 853.969C2332.46 853.329 2334.46 854.599 2334.46 854.599L2334.99 850.279C2334.99 850.279 2330.88 849.539 2331.2 845.439C2331.52 841.329 2334.15 841.649 2334.15 841.649C2334.15 841.649 2329.94 840.389 2330.89 836.069C2331.84 831.749 2335.31 833.539 2335.31 833.539C2335.31 833.539 2331.52 832.279 2332.57 828.169C2333.62 824.059 2336.68 825.329 2336.68 825.329C2336.68 825.329 2334.78 822.799 2336.47 820.379C2338.16 817.959 2343.32 817.539 2343.32 817.539C2343.32 817.539 2345.11 810.379 2345.22 807.009C2345.33 803.639 2347.68 800.889 2347.68 800.889L2347.67 800.849Z" fill="white"/>
</svg>
